<svg width="19" height="18" viewBox="-1 0 19 18" fill="none" xmlns="http://www.w3.org/2000/svg">
<circle cx="8.80284" cy="8.85374" r="8.50746" stroke="#5ABA4A" stroke-width="0.680597"/>
<path d="M11.4517 6.30494C11.568 6.19237 11.7227 6.13013 11.8833 6.13137C12.0438 6.1326 12.1976 6.19721 12.3122 6.31156C12.4268 6.42591 12.4933 6.58105 12.4975 6.74426C12.5017 6.90746 12.4435 7.06596 12.335 7.18631L9.04133 11.3749C8.9847 11.4369 8.91634 11.4867 8.84035 11.5213C8.76437 11.5558 8.68231 11.5744 8.59908 11.576C8.51586 11.5776 8.43318 11.5621 8.35598 11.5304C8.27879 11.4987 8.20867 11.4516 8.14982 11.3917L5.9656 9.17065C5.90478 9.11302 5.85599 9.04351 5.82215 8.96629C5.78831 8.88906 5.77012 8.8057 5.76865 8.72117C5.76718 8.63664 5.78248 8.55268 5.81361 8.47429C5.84475 8.3959 5.8911 8.32469 5.94989 8.26491C6.00868 8.20512 6.07871 8.158 6.15579 8.12633C6.23288 8.09467 6.31546 8.07912 6.39858 8.08061C6.48171 8.0821 6.56369 8.10061 6.63964 8.13501C6.71558 8.16942 6.78393 8.21903 6.84061 8.28089L8.56916 10.0378L11.436 6.32341C11.4412 6.31694 11.4467 6.31078 11.4525 6.30494H11.4517Z" fill="#5ABA4A"/>
</svg>
